<svg width="32" height="32" viewBox="0 0 32 32" fill="none" xmlns="http://www.w3.org/2000/svg">
  <defs>
    <linearGradient id="bgGradient" x1="0%" y1="0%" x2="100%" y2="100%">
      <stop offset="0%" style="stop-color:#e935c7;stop-opacity:1" />
      <stop offset="100%" style="stop-color:#7c3aed;stop-opacity:1" />
    </linearGradient>
  </defs>
  <!-- Outer rounded square with gradient -->
  <rect width="32" height="32" rx="7" fill="url(#bgGradient)"/>
  <!-- Dark center circle -->
  <circle cx="16" cy="16" r="12" fill="#2d1b3d"/>
  <!-- White geometric shapes - exact Campaign.ai logo -->
  <g fill="white">
    <!-- Top hexagon -->
    <polygon points="16,6 18.5,7 18.5,9 16,10 13.5,9 13.5,7" />
    <!-- Left elongated hexagon - angled inward -->
    <polygon points="7.5,12 11.5,11 14.5,21 10.5,22 6.5,21 6.5,13" />
    <!-- Right elongated hexagon - angled inward -->
    <polygon points="20.5,11 24.5,12 25.5,13 25.5,21 21.5,22 17.5,21" />
    <!-- Bottom left small hexagon -->
    <polygon points="9.5,22.5 11,23 11,24 9.5,24.5 8,24 8,23" />
    <!-- Bottom right small hexagon -->
    <polygon points="22.5,22.5 24,23 24,24 22.5,24.5 21,24 21,23" />
  </g>
</svg> 